<svg width="411" height="381" viewBox="0 0 411 381" fill="none" xmlns="http://www.w3.org/2000/svg">
<path d="M384 202H28" stroke="#3B4054" stroke-width="2" stroke-linecap="round" stroke-linejoin="round"/>
<g filter="url(#filter0_d_447_5)">
<circle cx="207" cy="202" r="44" fill="#1E1F27"/>
<circle cx="207" cy="202" r="43" stroke="#3B4054" stroke-width="2"/>
</g>
<path fill-rule="evenodd" clip-rule="evenodd" d="M243.873 181.866C236.004 168.236 222.163 160.162 207.538 159.957C206.986 159.949 206.545 159.495 206.553 158.943C206.56 158.391 207.014 157.949 207.567 157.957C222.92 158.172 237.396 166.647 245.605 180.866C245.881 181.344 245.717 181.956 245.239 182.232C244.761 182.508 244.149 182.344 243.873 181.866Z" fill="url(#paint0_linear_447_5)"/>
<path fill-rule="evenodd" clip-rule="evenodd" d="M170.127 222.134C177.996 235.764 191.837 243.838 206.462 244.043C207.014 244.051 207.455 244.505 207.447 245.057C207.44 245.609 206.986 246.051 206.433 246.043C191.08 245.828 176.604 237.353 168.395 223.134C168.119 222.656 168.283 222.044 168.761 221.768C169.239 221.492 169.851 221.656 170.127 222.134Z" fill="url(#paint1_linear_447_5)"/>
<g filter="url(#filter1_d_447_5)">
<path d="M207 167.216C200.12 167.216 193.395 169.256 187.675 173.078C181.955 176.9 177.496 182.333 174.864 188.689C172.231 195.045 171.542 202.039 172.884 208.786C174.226 215.533 177.539 221.731 182.404 226.596C187.268 231.461 193.466 234.773 200.214 236.116C206.961 237.458 213.955 236.769 220.311 234.136C226.667 231.503 232.099 227.045 235.922 221.325C239.744 215.605 241.784 208.88 241.784 202C241.784 192.775 238.119 183.927 231.596 177.404C225.072 170.881 216.225 167.216 207 167.216ZM207 227.067C202.453 227.068 197.991 225.833 194.093 223.493C190.194 221.153 187.006 217.797 184.868 213.784C182.731 209.77 181.725 205.251 181.959 200.711C182.193 196.17 183.658 191.778 186.196 188.006C188.734 184.233 192.251 181.223 196.369 179.296C200.488 177.369 205.052 176.598 209.575 177.066C214.098 177.535 218.408 179.224 222.044 181.955C223.528 183.069 224.877 184.339 226.07 185.739C228.556 188.655 226.027 192.565 222.196 192.565C221.028 192.565 219.952 191.979 219.173 191.109C217.291 189.005 214.888 187.416 212.192 186.512C208.904 185.41 205.352 185.382 202.047 186.432C198.743 187.483 195.859 189.558 193.812 192.357C191.765 195.155 190.662 198.533 190.662 202C190.662 205.467 191.765 208.845 193.812 211.643C195.859 214.442 198.743 216.517 202.047 217.568C205.352 218.618 208.904 218.59 212.192 217.488C214.886 216.585 217.287 214.998 219.168 212.897C219.95 212.023 221.031 211.435 222.204 211.435C226.046 211.435 228.586 215.352 226.096 218.278C224.626 220.007 222.919 221.536 221.016 222.816C216.874 225.602 211.992 227.083 207 227.067Z" fill="url(#paint2_linear_447_5)"/>
</g>
<g filter="url(#filter2_d_447_5)">
<rect x="15" y="168" width="86" height="68" rx="9" fill="#1E1F27" stroke="#3B4054" stroke-width="2"/>
<path d="M93.2354 189.98L25.0933 226.4" stroke="#3B4054" stroke-width="2" stroke-linecap="round" stroke-linejoin="round"/>
<path d="M50.1751 199.412C49.688 199.673 49.5042 200.278 49.7645 200.766C50.0249 201.253 50.6308 201.436 51.1179 201.176L50.1751 199.412ZM68.6389 191.48C68.7993 190.951 68.5008 190.393 67.9723 190.232L59.3599 187.619C58.8314 187.459 58.273 187.758 58.1127 188.286C57.9524 188.815 58.2508 189.373 58.7793 189.533L66.4348 191.856L64.1123 199.511C63.9519 200.04 64.2504 200.598 64.7789 200.759C65.3074 200.919 65.8658 200.62 66.0261 200.092L68.6389 191.48ZM58.6929 194.86L50.1751 199.412L51.1179 201.176L59.6356 196.624L58.6929 194.86ZM67.2106 190.307L58.6929 194.86L59.6356 196.624L68.1534 192.071L67.2106 190.307Z" fill="#3B4054"/>
<circle cx="33.1425" cy="209.431" r="9.11658" fill="#3B4054" stroke="#8E8F93" stroke-width="2"/>
</g>
<g filter="url(#filter3_d_447_5)">
<rect x="-1" y="1" width="86" height="68" rx="9" transform="matrix(-1 0 0 1 395 167)" fill="#1E1F27" stroke="#3B4054" stroke-width="2"/>
<path d="M317.765 189.98L385.907 226.4" stroke="#3B4054" stroke-width="2" stroke-linecap="round" stroke-linejoin="round"/>
<path d="M373.088 205.815C373.249 206.343 372.95 206.902 372.422 207.062L363.809 209.675C363.281 209.835 362.722 209.537 362.562 209.008C362.402 208.48 362.7 207.921 363.229 207.761L370.884 205.438L368.562 197.783C368.401 197.254 368.7 196.696 369.228 196.536C369.757 196.375 370.315 196.674 370.475 197.202L373.088 205.815ZM354.624 197.882C354.137 197.622 353.954 197.016 354.214 196.529C354.474 196.042 355.08 195.858 355.567 196.118L354.624 197.882ZM364.085 200.671L372.603 205.223L371.66 206.987L363.142 202.434L364.085 200.671ZM355.567 196.118L364.085 200.671L363.142 202.434L354.624 197.882L355.567 196.118Z" fill="#3B4054"/>
<circle cx="342.212" cy="190.117" r="9.11658" fill="white" stroke="#8E8F93" stroke-width="2"/>
</g>
<path d="M117 202L148 202" stroke="url(#paint3_linear_447_5)" stroke-width="2" stroke-linecap="round" stroke-linejoin="round"/>
<path d="M265 202L296 202" stroke="url(#paint4_linear_447_5)" stroke-width="2" stroke-linecap="round" stroke-linejoin="round"/>
<path d="M129 1L129 91C129 107.569 142.432 121 159 121H255C271.569 121 285 107.569 285 91V1" stroke="url(#paint5_linear_447_5)" stroke-width="2" stroke-linecap="round" stroke-linejoin="round"/>
<path d="M127 371L127 305C127 288.431 140.432 275 157 275H253C269.569 275 283 288.431 283 305V371" stroke="url(#paint6_linear_447_5)" stroke-width="2" stroke-linecap="round" stroke-linejoin="round"/>
<rect x="307" y="24" width="92" height="130" rx="9" stroke="url(#paint7_linear_447_5)" stroke-width="2"/>
<rect x="-1" y="1" width="92" height="130" rx="9" transform="matrix(-1 0 0 1 103 23)" stroke="url(#paint8_linear_447_5)" stroke-width="2"/>
<rect x="1" y="-1" width="92" height="130" rx="9" transform="matrix(1 0 0 -1 306 379)" stroke="url(#paint9_linear_447_5)" stroke-width="2"/>
<rect x="104" y="380" width="92" height="130" rx="9" transform="rotate(180 104 380)" stroke="url(#paint10_linear_447_5)" stroke-width="2"/>
<defs>
<filter id="filter0_d_447_5" x="159" y="158" width="96" height="96" filterUnits="userSpaceOnUse" color-interpolation-filters="sRGB">
<feFlood flood-opacity="0" result="BackgroundImageFix"/>
<feColorMatrix in="SourceAlpha" type="matrix" values="0 0 0 0 0 0 0 0 0 0 0 0 0 0 0 0 0 0 127 0" result="hardAlpha"/>
<feOffset dy="4"/>
<feGaussianBlur stdDeviation="2"/>
<feComposite in2="hardAlpha" operator="out"/>
<feColorMatrix type="matrix" values="0 0 0 0 0 0 0 0 0 0 0 0 0 0 0 0 0 0 0.25 0"/>
<feBlend mode="normal" in2="BackgroundImageFix" result="effect1_dropShadow_447_5"/>
<feBlend mode="normal" in="SourceGraphic" in2="effect1_dropShadow_447_5" result="shape"/>
</filter>
<filter id="filter1_d_447_5" x="156.216" y="155.216" width="101.568" height="101.568" filterUnits="userSpaceOnUse" color-interpolation-filters="sRGB">
<feFlood flood-opacity="0" result="BackgroundImageFix"/>
<feColorMatrix in="SourceAlpha" type="matrix" values="0 0 0 0 0 0 0 0 0 0 0 0 0 0 0 0 0 0 127 0" result="hardAlpha"/>
<feOffset dy="4"/>
<feGaussianBlur stdDeviation="8"/>
<feComposite in2="hardAlpha" operator="out"/>
<feColorMatrix type="matrix" values="0 0 0 0 0 0 0 0 0 0 0 0 0 0 0 0 0 0 0.31 0"/>
<feBlend mode="normal" in2="BackgroundImageFix" result="effect1_dropShadow_447_5"/>
<feBlend mode="normal" in="SourceGraphic" in2="effect1_dropShadow_447_5" result="shape"/>
</filter>
<filter id="filter2_d_447_5" x="0" y="157" width="116" height="98" filterUnits="userSpaceOnUse" color-interpolation-filters="sRGB">
<feFlood flood-opacity="0" result="BackgroundImageFix"/>
<feColorMatrix in="SourceAlpha" type="matrix" values="0 0 0 0 0 0 0 0 0 0 0 0 0 0 0 0 0 0 127 0" result="hardAlpha"/>
<feOffset dy="4"/>
<feGaussianBlur stdDeviation="7"/>
<feComposite in2="hardAlpha" operator="out"/>
<feColorMatrix type="matrix" values="0 0 0 0 0 0 0 0 0 0 0 0 0 0 0 0 0 0 0.25 0"/>
<feBlend mode="normal" in2="BackgroundImageFix" result="effect1_dropShadow_447_5"/>
<feBlend mode="normal" in="SourceGraphic" in2="effect1_dropShadow_447_5" result="shape"/>
</filter>
<filter id="filter3_d_447_5" x="295" y="157" width="116" height="98" filterUnits="userSpaceOnUse" color-interpolation-filters="sRGB">
<feFlood flood-opacity="0" result="BackgroundImageFix"/>
<feColorMatrix in="SourceAlpha" type="matrix" values="0 0 0 0 0 0 0 0 0 0 0 0 0 0 0 0 0 0 127 0" result="hardAlpha"/>
<feOffset dy="4"/>
<feGaussianBlur stdDeviation="7"/>
<feComposite in2="hardAlpha" operator="out"/>
<feColorMatrix type="matrix" values="0 0 0 0 0 0 0 0 0 0 0 0 0 0 0 0 0 0 0.25 0"/>
<feBlend mode="normal" in2="BackgroundImageFix" result="effect1_dropShadow_447_5"/>
<feBlend mode="normal" in="SourceGraphic" in2="effect1_dropShadow_447_5" result="shape"/>
</filter>
<linearGradient id="paint0_linear_447_5" x1="242.757" y1="181.933" x2="210.968" y2="159.872" gradientUnits="userSpaceOnUse">
<stop stop-color="white" stop-opacity="0.7"/>
<stop offset="1" stop-color="#3A3F53"/>
</linearGradient>
<linearGradient id="paint1_linear_447_5" x1="171.243" y1="222.067" x2="203.032" y2="244.128" gradientUnits="userSpaceOnUse">
<stop stop-color="white" stop-opacity="0.7"/>
<stop offset="1" stop-color="#3A3F53"/>
</linearGradient>
<linearGradient id="paint2_linear_447_5" x1="207" y1="163.414" x2="207" y2="240.586" gradientUnits="userSpaceOnUse">
<stop stop-color="#A8A8FF"/>
<stop offset="1" stop-color="#004999"/>
</linearGradient>
<linearGradient id="paint3_linear_447_5" x1="120.796" y1="202.5" x2="148" y2="202.5" gradientUnits="userSpaceOnUse">
<stop stop-color="#3B4054"/>
<stop offset="1" stop-color="white" stop-opacity="0.7"/>
</linearGradient>
<linearGradient id="paint4_linear_447_5" x1="268.796" y1="202.5" x2="296" y2="202.5" gradientUnits="userSpaceOnUse">
<stop stop-color="#3B4054"/>
<stop offset="1" stop-color="white" stop-opacity="0.7"/>
</linearGradient>
<linearGradient id="paint5_linear_447_5" x1="207" y1="5.2" x2="207" y2="113.8" gradientUnits="userSpaceOnUse">
<stop stop-color="#0D1D32"/>
<stop offset="1" stop-color="#1B223A"/>
</linearGradient>
<linearGradient id="paint6_linear_447_5" x1="205" y1="353.24" x2="205" y2="280.76" gradientUnits="userSpaceOnUse">
<stop stop-color="#10223A"/>
<stop offset="1" stop-color="#19304F"/>
</linearGradient>
<linearGradient id="paint7_linear_447_5" x1="379" y1="45.5" x2="310" y2="151.5" gradientUnits="userSpaceOnUse">
<stop stop-color="#0D1C31"/>
<stop offset="1" stop-color="#1B213A"/>
</linearGradient>
<linearGradient id="paint8_linear_447_5" x1="73" y1="22.5" x2="4" y2="128.5" gradientUnits="userSpaceOnUse">
<stop stop-color="#0D1C31"/>
<stop offset="1" stop-color="#1B213A"/>
</linearGradient>
<linearGradient id="paint9_linear_447_5" x1="73" y1="22.5" x2="4" y2="128.5" gradientUnits="userSpaceOnUse">
<stop stop-color="#0F2038"/>
<stop offset="1" stop-color="#19304F"/>
</linearGradient>
<linearGradient id="paint10_linear_447_5" x1="178" y1="403.5" x2="109" y2="509.5" gradientUnits="userSpaceOnUse">
<stop stop-color="#0F2038"/>
<stop offset="1" stop-color="#19304F"/>
</linearGradient>
</defs>
</svg>
