<svg width="102" height="110" viewBox="0 0 102 110" fill="none" xmlns="http://www.w3.org/2000/svg">
<g filter="url(#filter0_d_393_299)">
<circle cx="51" cy="55" r="44" fill="#1E1F27"/>
<circle cx="51" cy="55" r="43" stroke="#3B4054" stroke-width="2"/>
</g>
<path fill-rule="evenodd" clip-rule="evenodd" d="M87.8731 34.866C80.0035 21.2356 66.1627 13.162 51.5385 12.9569C50.9862 12.9491 50.5448 12.4952 50.5526 11.943C50.5603 11.3907 51.0143 10.9493 51.5665 10.9571C66.9196 11.1724 81.3957 19.6469 89.6051 33.866C89.8813 34.3443 89.7174 34.9559 89.2391 35.2321C88.7608 35.5082 88.1492 35.3443 87.8731 34.866Z" fill="url(#paint0_linear_393_299)"/>
<path fill-rule="evenodd" clip-rule="evenodd" d="M14.1269 75.134C21.9965 88.7644 35.8373 96.838 50.4615 97.0431C51.0138 97.0509 51.4552 97.5048 51.4474 98.057C51.4397 98.6093 50.9857 99.0507 50.4335 99.0429C35.0804 98.8276 20.6043 90.3531 12.3949 76.134C12.1187 75.6557 12.2826 75.0441 12.7609 74.7679C13.2392 74.4918 13.8508 74.6557 14.1269 75.134Z" fill="url(#paint1_linear_393_299)"/>
<g filter="url(#filter1_d_393_299)">
<path d="M50.9998 20.2161C44.1202 20.2161 37.395 22.2561 31.6749 26.0782C25.9547 29.9003 21.4963 35.3328 18.8636 41.6888C16.2309 48.0447 15.5421 55.0386 16.8842 61.786C18.2263 68.5334 21.5392 74.7313 26.4038 79.596C31.2684 84.4606 37.4663 87.7734 44.2138 89.1156C50.9612 90.4577 57.9551 89.7689 64.311 87.1362C70.667 84.5035 76.0995 80.0451 79.9216 74.3249C83.7437 68.6047 85.7837 61.8796 85.7837 55C85.7837 45.7747 82.119 36.9273 75.5957 30.404C69.0725 23.8808 60.2251 20.2161 50.9998 20.2161ZM50.9998 80.067C46.4529 80.0682 41.9914 78.8328 38.0928 76.4928C34.1943 74.1529 31.0056 70.7967 28.8682 66.7835C26.7308 62.7704 25.7252 58.2515 25.9591 53.7106C26.193 49.1698 27.6575 44.7781 30.1959 41.0058C32.7343 37.2334 36.2509 34.2226 40.3692 32.2956C44.4875 30.3686 49.0524 29.598 53.5751 30.0664C58.0978 30.5348 62.4078 32.2245 66.0439 34.9545C67.5277 36.0687 68.8766 37.339 70.0697 38.7388C72.5555 41.655 70.0275 45.5647 66.1956 45.5647C65.0275 45.5647 63.9519 44.9794 63.1732 44.1088C61.2912 42.0049 58.8882 40.4162 56.1918 39.512C52.9045 38.4095 49.3516 38.3816 46.0473 39.4324C42.7431 40.4831 39.8589 42.558 37.812 45.3567C35.7652 48.1553 34.662 51.5327 34.662 55C34.662 58.4673 35.7652 61.8447 37.812 64.6434C39.8589 67.442 42.7431 69.5169 46.0473 70.5676C49.3516 71.6184 52.9045 71.5905 56.1918 70.4881C58.8856 69.5847 61.2866 67.9982 63.1677 65.8973C63.9503 65.0233 65.0306 64.4353 66.2038 64.4353C70.0462 64.4353 72.5861 68.3518 70.0964 71.2784C68.6262 73.0065 66.9194 74.5356 65.0161 75.816C60.8741 78.6025 55.9918 80.0832 50.9998 80.067Z" fill="url(#paint2_linear_393_299)"/>
</g>
<defs>
<filter id="filter0_d_393_299" x="3" y="11" width="96" height="96" filterUnits="userSpaceOnUse" color-interpolation-filters="sRGB">
<feFlood flood-opacity="0" result="BackgroundImageFix"/>
<feColorMatrix in="SourceAlpha" type="matrix" values="0 0 0 0 0 0 0 0 0 0 0 0 0 0 0 0 0 0 127 0" result="hardAlpha"/>
<feOffset dy="4"/>
<feGaussianBlur stdDeviation="2"/>
<feComposite in2="hardAlpha" operator="out"/>
<feColorMatrix type="matrix" values="0 0 0 0 0 0 0 0 0 0 0 0 0 0 0 0 0 0 0.25 0"/>
<feBlend mode="normal" in2="BackgroundImageFix" result="effect1_dropShadow_393_299"/>
<feBlend mode="normal" in="SourceGraphic" in2="effect1_dropShadow_393_299" result="shape"/>
</filter>
<filter id="filter1_d_393_299" x="0.21582" y="8.21606" width="101.568" height="101.568" filterUnits="userSpaceOnUse" color-interpolation-filters="sRGB">
<feFlood flood-opacity="0" result="BackgroundImageFix"/>
<feColorMatrix in="SourceAlpha" type="matrix" values="0 0 0 0 0 0 0 0 0 0 0 0 0 0 0 0 0 0 127 0" result="hardAlpha"/>
<feOffset dy="4"/>
<feGaussianBlur stdDeviation="8"/>
<feComposite in2="hardAlpha" operator="out"/>
<feColorMatrix type="matrix" values="0 0 0 0 0 0 0 0 0 0 0 0 0 0 0 0 0 0 0.31 0"/>
<feBlend mode="normal" in2="BackgroundImageFix" result="effect1_dropShadow_393_299"/>
<feBlend mode="normal" in="SourceGraphic" in2="effect1_dropShadow_393_299" result="shape"/>
</filter>
<linearGradient id="paint0_linear_393_299" x1="86.757" y1="34.933" x2="54.9676" y2="12.8721" gradientUnits="userSpaceOnUse">
<stop stop-color="white" stop-opacity="0.7"/>
<stop offset="1" stop-color="#3A3F53"/>
</linearGradient>
<linearGradient id="paint1_linear_393_299" x1="15.243" y1="75.067" x2="47.0324" y2="97.1279" gradientUnits="userSpaceOnUse">
<stop stop-color="white" stop-opacity="0.7"/>
<stop offset="1" stop-color="#3A3F53"/>
</linearGradient>
<linearGradient id="paint2_linear_393_299" x1="50.9998" y1="16.4138" x2="50.9998" y2="93.5862" gradientUnits="userSpaceOnUse">
<stop stop-color="#A8A8FF"/>
<stop offset="1" stop-color="#004999"/>
</linearGradient>
</defs>
</svg>
